<?xml version="1.0" encoding="UTF-8" standalone="no"?>
<!-- Created with Inkscape (http://www.inkscape.org/) -->

<svg
   width="210mm"
   height="297mm"
   viewBox="0 0 210 297"
   version="1.1"
   id="svg5"
   inkscape:version="1.1.2 (b8e25be833, 2022-02-05)"
   sodipodi:docname="mapaZiemi.svg"
   xmlns:inkscape="http://www.inkscape.org/namespaces/inkscape"
   xmlns:sodipodi="http://sodipodi.sourceforge.net/DTD/sodipodi-0.dtd"
   xmlns="http://www.w3.org/2000/svg"
   xmlns:svg="http://www.w3.org/2000/svg">
  <sodipodi:namedview
     id="namedview7"
     pagecolor="#ffffff"
     bordercolor="#666666"
     borderopacity="1.0"
     inkscape:pageshadow="2"
     inkscape:pageopacity="0.0"
     inkscape:pagecheckerboard="0"
     inkscape:document-units="mm"
     showgrid="false"
     inkscape:zoom="0.22331229"
     inkscape:cx="188.07742"
     inkscape:cy="736.63658"
     inkscape:window-width="1335"
     inkscape:window-height="1082"
     inkscape:window-x="867"
     inkscape:window-y="235"
     inkscape:window-maximized="0"
     inkscape:current-layer="layer1" />
  <defs
     id="defs2" />
  <g
     inkscape:groupmode="layer"
     id="layer2"
     inkscape:label="tło"
     style="display:inline" />
  <g
     inkscape:label="Warstwa 1"
     inkscape:groupmode="layer"
     id="layer1"
     style="display:inline">
    <path
       id="path980"
       style="fill:#008000;stroke:none;stroke-width:0.999999px;stroke-linecap:butt;stroke-linejoin:miter;stroke-opacity:1"
       d="M 286.63672 289.50586 C 277.49081 289.58577 264.71669 291.59437 254.93359 297.66602 C 242.89285 305.13881 217.57793 302.55273 210.22656 307.18555 C 202.87518 311.81837 190.11027 322.92484 185.75586 330.06445 C 181.40145 337.20406 196.00004 347.62728 179.12891 341.04297 C 162.25778 334.45866 170.04939 344.69165 161.76367 340.04297 C 153.47795 335.39429 154.50066 332.22106 151.57422 331.55469 C 148.64777 330.88833 146.65456 329.25567 143.86914 327.20898 C 141.08373 325.16231 139.74389 317.57857 129.71289 320.89453 C 119.68188 324.21048 117.70667 328.04963 115.13281 327.22461 C 112.55895 326.39959 109.98561 325.68595 110.23242 328.74805 C 110.47923 331.81014 115.16838 338.06046 112.33008 339.99609 C 109.49178 341.93172 108.57529 340.48796 108.20508 338.96484 C 107.83487 337.44174 98.896332 339.83794 98.949219 341.25 C 99.002094 342.66205 100.9601 341.71006 99.902344 343.3125 C 98.844594 344.91495 96.938867 346.29516 98.490234 347.4375 C 100.04161 348.57984 114.88683 349.29414 98.667969 353.7207 C 82.449116 358.14726 91.862871 372.58396 94.701172 373.61523 C 97.539469 374.64652 102.5634 373.22336 100.3418 375.22852 C 100.3418 375.22852 87.719835 390.10925 55.652344 394.23438 C 23.584853 398.35945 61.998406 399.37594 78.058594 393.26758 C 94.118781 387.15926 111.62444 375.21199 117.21289 375.5293 C 122.80134 375.84663 127.01569 375.33922 130.36523 378.08398 C 133.71478 380.82879 136.76366 388.95176 136.09375 394.1875 C 135.42384 399.4232 133.02717 403.62704 135.10742 407.48242 C 137.18766 411.33784 146.38935 413.36858 144.13281 423.31641 C 141.87627 433.26427 139.25061 441.4363 139.03906 443.83203 C 138.82752 446.2278 136.35893 456.82598 142.58203 461.72852 C 148.80513 466.63102 147.60661 463.47395 148.55859 468.53516 C 149.51057 473.59632 156.08558 488.27128 158.90625 489.57227 C 161.72692 490.87325 160.6878 489.25453 159.24219 487.27148 C 157.7966 485.28825 152.48982 474.02375 152.63086 472.07227 C 152.77187 470.12078 153.0891 469.53385 154.02344 470.26367 C 154.95779 470.9935 155.18721 472.8016 155.96289 474.41992 C 156.73858 476.03824 163.70151 486.79546 164.93555 488.17578 C 166.16959 489.5561 168.2158 494.52328 167.21094 496.07812 C 166.20607 497.63298 177.98174 505.93093 182.26562 506.10547 C 186.54952 506.28008 186.47778 504.69354 188.08203 505.45508 C 189.68629 506.21665 191.90871 509.23086 193.75977 509.97656 C 195.61084 510.72223 198.13147 509.99112 200.61719 511.81641 C 203.1029 513.64101 204.58327 514.49702 204.83008 516.62305 C 205.07688 518.74907 211.79414 524.09737 214.08594 522.82812 C 216.37773 521.55886 219.26898 517.40172 220.13281 522.9707 C 220.99664 528.53957 222.74102 530.42633 218.42188 534.25 C 214.10272 538.07367 211.1417 543.81426 213.46875 550.00195 C 215.79581 556.18961 223.605 569.48552 231.18555 572.62695 C 238.7661 575.76838 237.09276 590.49126 236.08789 597.63086 C 235.08303 604.77046 228.54212 650.92554 242.32812 661.36523 C 256.11416 671.80493 262.18002 662.88718 258.01953 662.72852 C 253.85905 662.56978 246.61233 654.71688 250.98438 649.30664 C 255.35641 643.8964 254.75659 640.94546 253.15234 641.58008 C 251.54808 642.2147 248.70971 639.94542 249.13281 639.29492 C 249.55592 638.64443 249.25621 636.94698 251.83008 636.70898 C 254.40394 636.47087 257.54204 627.01555 257.18945 625.34961 C 256.83686 623.68371 254.86329 620.27285 257.56055 620.82812 C 260.25782 621.38345 267.96179 619.33521 266.32227 615.9082 C 264.68276 612.48119 259.63976 609.95859 262.63672 610.49805 C 265.63368 611.0375 268.91297 612.8622 270.64062 610.73633 C 272.36828 608.61031 281.43064 597.9491 280.42578 595.125 C 279.42092 592.30086 278.5385 590.14364 280.75977 589.30273 C 282.98104 588.46187 293.66435 586.44696 294.91602 580.41797 C 296.1677 574.38898 297.36628 564.78856 298.35352 563.66211 C 299.34075 562.53562 304.52467 559.55315 304.77148 555.66602 C 305.01829 551.77888 306.95798 549.47861 299.88867 546.51172 C 292.81937 543.54479 278.80419 541.70842 274.25586 533.125 C 269.70752 524.54162 264.45348 527.88991 261.63281 525.62109 C 258.81214 523.35228 256.29057 517.32322 244.30273 515.97461 C 232.31488 514.62604 237.44567 512.91253 234.625 512.75391 C 231.80433 512.59517 223.97668 518.65547 222.58398 519.48047 C 221.19127 520.3055 219.30594 516.81524 214.82812 519.5918 C 210.35032 522.36831 207.91688 514.02304 210.31445 510.96094 C 212.71202 507.89884 207.95271 504.77394 200.00195 506.02734 C 192.05118 507.28075 207.93404 496.09549 204.4082 494.95312 C 200.88237 493.81081 199.87742 494.09609 197.69141 495.0957 C 195.50538 496.09527 197.00486 500.53707 193.30273 500.41016 C 189.6006 500.28316 178.19281 502.34684 184.45117 484.51367 C 190.70954 466.68054 210.93061 473.51871 213.31055 481.29297 C 215.69049 489.06719 218.42409 487.08273 218.33594 484.71875 C 218.24784 482.35473 213.6288 473.91429 219.05859 470.29688 C 224.48838 466.67949 228.15553 466.90186 230.42969 461.14258 C 232.70386 455.38326 232.54551 448.7353 239.08594 448.54492 C 245.62636 448.35443 243.82754 448.02183 242.68164 446.32422 C 241.53574 444.62657 245.1137 438.78766 251.03711 442.61133 C 256.96051 446.43496 277.44596 434.916 275.87695 430.15625 C 274.30795 425.3965 273.69047 424.8428 273.33789 417.95703 C 272.9853 411.0713 264.87583 414.95872 265.26367 410.21484 C 265.65151 405.47097 264.34849 392.92028 262.70898 394.57031 C 261.06946 396.22038 254.07016 409.86635 254.12305 395.50781 C 254.17596 381.14924 238.96131 384.94122 240.17773 392.16016 C 241.39414 399.37913 239.70186 394.79366 238.11523 398.09375 C 236.5286 401.39384 242.89275 402.61507 238.78516 406.48633 C 234.67755 410.35758 233.39102 407.77189 232.58008 410.70703 C 231.76913 413.64221 233.90199 424.38273 229.30078 420.52734 C 224.69956 416.67196 230.44625 410.34133 228.10156 409.3418 C 225.75688 408.34226 201.53524 401.67876 210.94922 391.57227 C 220.36321 381.46573 227.04381 375.37248 230.79883 381.97266 C 234.55384 388.57285 241.44662 383.59184 236.95117 376.76953 C 232.45573 369.94724 242.24014 371.56647 242.94531 368.3457 C 243.65048 365.12496 248.11037 352.44726 251.8125 358.23828 C 255.51463 364.0293 261.65016 370.106 246.89453 376.11914 C 232.1389 382.13228 251.40771 378.60903 252.25391 380.43359 C 253.10011 382.25816 251.81355 385.90775 254.82812 387.22461 C 257.84271 388.54147 260.32747 389.68381 261.22656 390.57227 C 262.12564 391.46076 262.07423 394.50795 262.74414 392.95312 C 263.41404 391.39828 265.91617 379.59288 271.25781 376.5625 C 276.59946 373.53213 268.61321 372.99254 267.29102 366.53516 C 265.96883 360.07777 268.54276 367.99476 268.61328 363.96484 C 268.68377 359.93493 262.39024 343.02339 258.47656 341.61133 C 254.56288 340.19928 254.22779 337.02862 256.50195 335.01367 C 258.77612 332.99871 259.62205 322.65382 276.82812 312.26172 C 294.0342 301.86962 299.58889 301.99843 300.59375 299.14258 C 301.59861 296.28674 301.06835 290.58918 292.30664 289.73242 C 290.66382 289.57178 288.74731 289.48742 286.63672 289.50586 z M 483.5625 293.99805 C 483.39693 294.00664 483.26818 294.11305 483.18555 294.35352 C 483.18555 294.35352 483.23743 295.56036 482.19727 296.98828 C 481.15718 298.4162 481.13971 300.57333 482.14453 302.17578 C 483.14939 303.77822 483.92521 306.75999 484.78906 306.61719 C 485.65287 306.4744 485.688 305.28462 486.86914 306.2207 C 488.05032 307.15678 489.49557 307.80849 491.69922 308.45898 C 493.90287 309.10948 495.91296 309.33017 496.9707 308.67969 C 498.02844 308.02919 499.40355 306.63438 499.66797 308.33203 C 499.93254 310.02967 498.94468 313.93146 500.51367 313.04297 C 502.08267 312.15449 503.30047 310.79063 504.76367 310.17188 C 506.22688 309.55311 507.75995 308.63332 509.04688 308.72852 C 510.33383 308.82372 513.19055 310.26701 511.46289 308.63281 C 509.73523 306.99863 506.89552 307.2999 504.5332 305.42773 C 502.17089 303.55556 499.93299 301.42954 499.47461 302.98438 C 499.01627 304.53922 502.75313 308.63244 499.70312 306.85547 C 496.65328 305.0785 498.11693 304.66735 494.83789 301.74805 C 491.55885 298.82874 491.15387 302.50953 489.28516 300.20898 C 487.41648 297.90845 489.19584 297.3366 487.67969 297.03516 C 486.40046 296.7808 484.45657 293.95166 483.5625 293.99805 z M 333.41211 294.6543 C 329.24251 294.66065 325.36868 296.62767 318.23438 297.86719 C 309.10245 299.45377 290.97998 307.51424 289.12891 309.02148 C 287.2778 310.52873 287.7712 312.14589 289.2168 311.66992 C 290.66239 311.19395 293.39459 309.21179 291.34961 313.27344 C 289.30462 317.33508 281.7769 317.55589 277.21094 319.79297 C 272.64498 322.03005 274.54827 331.80402 283.50391 333.26367 C 292.45953 334.72333 289.79891 343.97268 291.12109 347.57422 C 292.44329 351.17575 284.66823 361.25086 289.97461 357.20508 C 295.281 353.1593 295.29864 361.90103 293.3418 367.26367 C 291.38496 372.62631 286.99505 373.54643 286.00781 380.6543 C 285.02058 387.76219 288.91622 392.39533 296.9375 398.64648 C 304.95878 404.8976 304.74808 385.90659 308.78516 381.76562 C 312.82225 377.62466 312.87498 384.54128 316.92969 378.86133 C 320.98439 373.18137 323.29326 374.43595 335.33398 369.39062 C 347.37473 364.34532 347.10992 335.61133 346.24609 329.82031 C 345.38226 324.02931 354.49711 314.92276 356.8418 313.32031 C 359.18648 311.71787 356.55912 310.43177 352.32812 309.9082 C 348.09713 309.38462 343.53282 305.92723 347.71094 304.67383 C 351.88906 303.42043 345.66602 301.26172 345.66602 301.26172 C 343.3037 301.24586 342.96828 296.83583 337.0625 295.16992 C 335.77061 294.8055 334.5796 294.65252 333.41211 294.6543 z M 437.48047 301.08594 C 437.11558 301.09369 437.79153 302.81157 437.68359 304.11133 C 437.54258 305.80897 435.99229 307.68094 435.28711 309.01367 C 434.58204 310.3464 435.25213 314.25045 435.19922 315.25 C 435.14634 316.24956 433.43551 316.10669 432.0957 314.99609 C 430.7559 313.88548 431.90277 313.9633 433.10156 312.39258 C 434.30035 310.82187 432.48441 310.66331 431.12695 308.26758 C 429.76954 305.87184 430.50852 308.66406 430.93164 310.98047 C 431.35472 313.29687 429.11551 311.44045 427 311.37695 C 424.89271 311.31374 424.9735 313.47072 426.68164 314.78906 C 426.70366 314.76584 426.83614 314.70801 427.37109 314.56641 C 428.27017 314.32841 428.04031 315.40748 428.32227 316.61328 C 428.60433 317.81905 430.42024 316.75703 431.6543 316.55078 C 432.88835 316.34453 432.53701 317.66019 433.92969 317.78711 C 435.32241 317.91403 435.63867 316.29639 436.30859 315.16992 C 436.97848 314.04347 438.42522 315.08981 439.97656 314.83594 C 441.52795 314.58208 442.49738 315.43974 444.08398 315.67773 C 445.67063 315.91572 444.85867 314.77322 445.10547 313.75781 C 445.35227 312.74241 443.37894 313.58264 442.69141 313.02734 C 442.00383 312.47203 442.62092 312.12376 444.03125 312.07617 C 445.44158 312.02857 446.05716 311.85379 445.82812 310.80664 C 445.59894 309.7595 445.72351 309.58436 447.45117 307.88672 C 449.17883 306.18908 448.31535 306.44264 448.05078 305.33203 C 447.78637 304.22145 446.05858 303.27119 445.98828 304.19141 C 445.91776 305.11162 442.60262 307.29946 440.20508 306.87109 C 437.80746 306.44271 439.69389 303.2394 438.16016 301.62109 C 437.80069 301.2418 437.59217 301.08357 437.48047 301.08594 z M 565.17773 302.36523 C 563.8962 302.38822 563.31591 303.12816 563.81641 304.30273 C 564.51278 305.93692 566.5054 307.55566 564.01953 305.81836 C 561.53381 304.08105 561.61328 303.99414 561.61328 303.99414 C 561.61328 303.99414 557.84915 300.8997 559.02148 305.19141 C 560.19382 309.48311 561.20856 310.91152 563.0332 311.59375 C 564.85781 312.27598 566.1711 313.17193 566.7793 311.75195 C 567.3875 310.33196 567.75746 308.64248 568.89453 308.77734 C 570.0316 308.9122 570.81666 309.20648 571.07227 308.3418 C 571.32776 307.47711 572.76328 307.27885 572.56055 306.2793 C 572.35796 305.27976 571.57372 305.12858 571.40625 304.76367 C 571.23882 304.39876 572.82628 302.95391 573.80469 303.80273 C 574.78309 304.65156 574.78235 305.57179 576.42188 305.60352 C 578.06139 305.63526 583.39357 306.06408 581.70117 304.28711 C 580.00874 302.51014 579.33951 302.62052 576.42188 302.78711 C 573.50427 302.95371 569.45053 303.49472 566.98242 302.68555 C 566.28828 302.45797 565.6792 302.35624 565.17773 302.36523 z M 508.42969 311.81445 C 508.11866 311.87461 507.82919 312.21054 507.45898 313.00781 C 506.47173 315.13383 506.10072 318.02073 507.49219 319.09961 C 508.88491 320.17848 512.12855 319.46415 510.89453 320.79688 C 509.66048 322.12959 493.79449 326.31887 493.93555 332.20508 C 494.07652 338.09129 497.08043 336.72629 496.28711 337.77344 C 495.49382 338.82057 487.08597 341.011 487.73828 342.2168 C 488.39055 343.4226 487.22697 351.78316 477.6543 348.05469 C 468.08166 344.32623 474.33934 352.54437 472.48828 354.51172 C 470.63722 356.47908 472.8064 361.04938 474.28711 362.55664 C 475.76793 364.06389 483.2605 370.99665 478.28906 367.87109 C 473.31762 364.74553 466.77574 361.81015 464.625 362.22266 C 462.47422 362.63517 460.6071 359.33602 460.71289 360.875 C 460.81872 362.41398 464.34318 364.01675 464.53711 365.87305 C 464.731 367.72935 451.4913 368.11007 449.78125 370.25195 C 448.07124 372.39383 448.46022 375.61504 446.00977 375.88477 C 443.55927 376.15447 440.43782 376.1532 441.67188 374.42383 C 442.90588 372.69446 446.67947 371.99621 443.38281 371.3457 C 440.08616 370.6952 437.35327 368.39539 438.11133 370.14062 C 438.86939 371.88586 440.56214 373.25038 440.01562 375.02734 C 439.46915 376.80432 443.4359 380.61268 441.28516 379.88281 C 439.13438 379.15299 438.71062 376.99355 437.47656 378.83398 C 436.24251 380.67443 434.0391 381.81815 434.69141 383.11914 C 435.34368 384.42013 437.67155 386.40224 435.76758 385.89453 C 433.86364 385.38683 430.24894 381.95946 430.61914 384.11719 C 430.98916 386.27496 434.58579 386.98914 432.61133 387.57617 C 430.63687 388.16321 417.87345 377.51831 422.45703 378.50195 C 427.04062 379.48565 440.1209 384.14963 434.79688 374.80469 C 429.47288 365.45974 418.8962 368.49063 417.64453 368.07812 C 416.39287 367.66562 415.35203 367.41241 416.5332 366.49219 C 417.71434 365.57198 416.60401 362.27044 412.44336 363.11133 C 408.28286 363.95222 397.92041 369.36341 394.37695 375.78906 C 390.83346 382.21471 389.49218 388.25864 387.46484 389.87695 C 385.43747 391.49523 380.62596 392.19373 379.62109 395.12891 C 378.61623 398.06405 380.00888 400.23772 380.30859 402.20508 C 380.60831 404.17244 376.95828 404.96521 379.90234 406.61523 C 382.84644 408.2653 385.72102 407.9173 386.95508 406.29883 C 388.18913 404.68055 389.74002 405.33026 390.48047 407.37695 C 391.22088 409.42364 392.45529 410.86858 393.05469 412.83594 C 393.65408 414.80329 394.48267 414.97713 395.73438 414.04102 C 396.98603 413.10494 399.87702 414.81793 399.85938 412.78711 C 399.84048 410.75626 397.49617 408.01285 399.50586 406.39453 C 401.51559 404.77621 403.22628 404.7921 402.64453 403.04688 C 402.06275 401.30164 400.35266 402.41114 399.96484 400.03125 C 399.57699 397.65139 397.79699 395.62119 399.80664 393.68555 C 401.81637 391.74994 405.25373 389.78313 405.32422 388.24414 C 405.3949 386.70515 403.57944 384.26016 405.81836 383.7207 C 408.05724 383.18125 410.45394 380.77025 410.8418 383.03906 C 411.22961 385.30788 412.86881 383.91088 410.27734 387.33789 C 407.68584 390.7649 405.83491 390.82895 405.51758 393.47852 C 405.2001 396.12812 405.34245 399.47596 407.19336 400.03125 C 409.04442 400.58658 413.50302 400.42845 415.16016 399.87305 C 416.81729 399.31772 418.1407 398.06415 419.46289 399.63477 C 420.78508 401.20546 422.38802 403.09243 419.48047 402.79102 C 416.57167 402.48941 410.98402 403.40973 409.75 404.98047 C 408.51595 406.55116 406.80568 407.02717 407.81055 407.29688 C 408.81541 407.56672 410.6847 405.807 411.6543 406.42578 C 412.6239 407.04453 413.13406 406.9178 412.71094 408.47266 C 412.28786 410.02752 413.75214 410.64577 412.39453 410.82031 C 411.03708 410.99493 409.99691 407.69518 408.375 409.37695 C 406.75313 411.05873 406.22422 412.94574 407.03516 413.81836 C 407.84609 414.69101 407.1934 415.38896 407.88086 415.62695 C 408.56839 415.86506 409.6625 414.78547 410.19141 415.91211 C 410.72028 417.03856 412.09396 417.89698 410.66602 417.86523 C 409.23803 417.835 407.82791 417.24567 406.55859 417.4043 C 405.28932 417.56304 405.8533 418.13381 405.25391 418.32422 C 404.65451 418.51471 403.82564 419.49883 403.33203 418.16602 C 402.83842 416.83328 404.26683 416.42145 402.50391 416.70703 C 400.74098 416.99276 397.56736 419.18079 396.5625 419.87891 C 395.55764 420.57698 394.16537 418.86349 393.03711 418.7207 C 391.90881 418.57784 390.9397 420.29261 390.18164 419.80078 C 389.42362 419.30891 389.33473 418.65724 388.40039 417.68945 C 387.46605 416.72163 389.56421 418.87982 390.99219 417.78516 C 392.42013 416.69042 393.79595 414.50128 392.10352 414.80273 C 390.41112 415.10434 389.17631 413.45318 388.3125 410.23242 C 387.44865 407.01166 384.24052 411.9146 384.82227 413.29492 C 385.40401 414.67524 386.40895 416.64383 386.16211 417.97656 C 385.91531 419.3093 387.2202 421.24403 385.36914 420.73633 C 383.51808 420.22862 379.14474 421.27668 378.4043 422.60938 C 377.66388 423.9421 379.49858 425.54411 377.96484 426.36914 C 376.43112 427.19414 376.27249 427.35178 375.25 428.36719 C 374.22751 429.3826 375.16228 430.431 373.76953 430.85938 C 372.37682 431.28774 372.34156 431.30359 371.07227 432.01758 C 369.80296 432.73153 368.60362 429.49468 368.56836 431.00195 C 368.53321 432.50919 369.96088 433.22294 368.63867 433.46094 C 367.31649 433.69905 363.04975 432.04933 363.40234 433.55664 C 363.75494 435.06392 365.9422 435.23729 367.01758 436.45898 C 368.09296 437.68064 370.03047 440.14109 369.625 441.26758 C 369.21953 442.39403 370.0138 443.86815 369.29102 444.96289 C 368.56823 446.05763 368.02191 446.05888 365.85352 446.29688 C 363.68513 446.53498 359.98315 444.10622 357.70898 445.34375 C 355.43482 446.58128 354.35954 446.74098 354.97656 447.97852 C 355.59359 449.21605 355.57443 452.54787 355.50391 453.89648 C 355.43342 455.24506 354.42984 453.51581 354.37695 455.5625 C 354.32404 457.60919 355.4872 457.40256 355.1875 458.41797 C 354.88782 459.43338 354.07776 461.60756 355.55859 461.21094 C 357.03944 460.81428 357.76066 460.11599 358.80078 461.09961 C 359.8409 462.08331 359.66568 463.24123 360.45898 463.30469 C 361.2523 463.36818 362.38048 461.82908 363.86133 461.76562 C 365.34219 461.70214 367.74025 463.30507 368.41016 461.86133 C 369.08006 460.41751 371.14161 458.22784 371.47656 457.37109 C 371.8115 456.51435 369.55569 456.97343 371.23047 454.73633 C 372.90524 452.49926 372.97437 451.99204 374.40234 451.35742 C 375.8303 450.72276 376.94141 451.6114 376.94141 450.07227 C 376.94141 448.53328 375.67346 447.23228 377.1543 446.59766 C 378.63515 445.963 379.05789 445.26502 380.64453 445.94727 C 382.23114 446.62947 382.84862 446.91459 383.87109 445.85156 C 384.89361 444.78857 385.89663 444.29634 387.20117 444.07422 C 388.50571 443.85198 387.57297 442.58296 389.2832 444.70898 C 390.99321 446.83497 389.33555 446.51769 391.50391 448.18359 C 393.6723 449.8495 395.45192 450.48385 397.21484 451.54688 C 398.97777 452.60986 400.03566 452.70672 400.54688 454.6582 C 401.05812 456.60972 402.50512 456.35476 400.67188 457.56055 C 398.83846 458.76637 396.49318 458.71939 395.4707 459.32227 C 394.44823 459.92518 396.95178 461.40025 398.09766 461.92383 C 399.24357 462.44741 398.39737 461.44772 399.4375 460.25781 C 400.47763 459.06787 400.89968 460.36964 401.81641 458.92578 C 402.73313 457.482 403.24385 456.94186 402.66211 455.625 C 402.08033 454.30814 400.75992 452.76914 402.75195 453.30859 C 404.74407 453.84801 404.01953 453.94336 404.01953 453.94336 C 404.01953 453.94336 406.04872 455.86256 405.41406 454.22852 C 404.77944 452.59436 402.30962 450.91402 399.92969 449.62891 C 397.54976 448.34379 393.09102 444.6778 393.37305 442.74219 C 393.655 440.80654 394.78335 439.80778 395.41797 440.63281 C 396.05263 441.45781 397.21616 442.56798 399.45508 444.13867 C 401.69399 445.70941 404.26772 448.00973 405.57227 449.04102 C 406.87685 450.0723 407.03434 452.05594 407.31641 453.26172 C 407.59836 454.46754 407.37036 455.54508 409.66211 458.62305 C 411.9539 461.70102 413.78775 464.90656 414.24609 462.95508 C 414.70447 461.00356 415.32008 459.19474 416.07812 458.8457 C 416.83618 458.49685 420.3626 459.7344 417.22461 457.54492 C 414.08658 455.35544 412.30519 454.10266 413.48633 453.51562 C 414.66751 452.9286 416.69496 451.97539 418.1582 452.18164 C 419.62141 452.388 420.4869 452.99255 420.29297 454.76953 C 420.09908 456.54648 419.49936 459.13086 421.06836 460.28906 C 422.63735 461.44726 424.59358 463.20936 426.00391 462.79688 C 427.41424 462.38434 426.99162 464.47886 428.54297 462.9082 C 430.09435 461.33751 430.02337 461.6554 431.39844 462.35352 C 432.77354 463.05159 434.18463 463.24076 435.85938 462.43164 C 437.53415 461.62248 439.12092 460.17909 439.19141 461.89258 C 439.26208 463.6061 438.48484 465.35178 438.99609 466.36719 C 439.50735 467.3826 439.64928 469.32685 438.66211 470.31055 C 437.67486 471.29421 436.47543 472.64251 436.19336 473.41992 C 435.91141 474.19737 431.59307 473.9908 430.48242 473.5625 C 429.37181 473.13413 428.5421 473.88083 427.48438 474.27734 C 426.4266 474.67397 423.92379 474.83157 421.91406 473.70508 C 419.90434 472.57863 409.25721 467.75687 408.79883 472.58008 C 408.34048 477.40328 409.76824 478.06906 406.17188 475.57812 C 402.57554 473.0872 402.57525 476.37077 401.55273 474.84766 C 400.53026 473.32454 401.16537 471.86442 399.36719 471.4043 C 397.569 470.94418 394.55426 471.70743 393.35547 470.5332 C 392.15668 469.35913 390.02248 470.37385 390.35742 468.77148 C 390.69229 467.16904 392.5093 467.40663 391.99805 465.70898 C 391.48683 464.01133 391.55608 462.01232 391.78516 461.33008 C 392.0142 460.64784 391.94414 460.72821 389 461.14062 C 386.0559 461.55312 371.81183 461.36224 368.67383 465.04297 C 365.53584 468.72385 363.42113 463.88413 361.6582 464.3125 C 359.89528 464.74087 361.14718 466.78825 359.56055 467.61328 C 357.97393 468.43828 356.12137 468.53289 354.67578 470.48438 C 353.23018 472.43589 355.64665 475.76819 353.56641 477.5293 C 351.48617 479.29041 348.71723 479.9716 347.21875 481.9707 C 345.72027 483.96981 336.72968 493.1248 338.35156 495.71094 C 339.97345 498.29704 340.25603 504.37345 338.8457 507.5625 C 337.43536 510.75151 348.71828 529.61651 356.29883 528.75977 C 363.87938 527.90302 366.09975 528.06173 368.07422 528.63281 C 370.04869 529.20397 370.89468 526.95123 373.53906 526.04688 C 376.18344 525.14255 378.65206 523.14397 380.09766 525.11133 C 381.54325 527.07869 379.1456 529.91715 382.8125 529.45703 C 386.47936 528.99695 388.10139 527.03084 389.51172 529.37891 C 390.92209 531.72705 392.27975 530.26607 390.76367 534.74023 C 389.24755 539.2144 390.23484 542.86387 394.11328 546.6875 C 397.99168 550.51117 398.69552 562.36418 396.59766 564.36328 C 394.49979 566.36239 392.01591 571.4537 393.9375 574.11914 C 395.85905 576.78461 399.03058 582.46525 399.25977 585.52734 C 399.4888 588.58944 399.07895 593.82312 401.83203 594.95898 C 401.83203 594.95898 404.12397 597.65555 404.47656 600.14648 C 404.82919 602.63742 405.72805 606.20629 405.88672 607.41211 C 406.04546 608.61789 407.29734 610.15806 408.47852 609.39648 C 409.65966 608.63495 413.13182 607.14237 414.1543 607.28516 C 415.17681 607.42802 418.91357 609.14186 421.78711 606.87305 C 424.66068 604.60423 429.61517 599.47986 430.99023 597.8457 C 432.3653 596.21151 434.40987 592.54712 434.49805 591.5 C 434.58611 590.45284 432.54234 590.13439 436.13867 588.48438 C 439.73504 586.83435 440.87912 584.0109 440.12109 582.51953 C 439.36303 581.02813 436.31358 579.59999 440.66797 576.74414 C 445.0224 573.88829 453.48533 571.14375 451.12305 562.70312 C 448.76073 554.26254 444.86397 549.59859 450.69922 543.61719 C 456.53447 537.63578 469.05245 529.25765 470.49805 522.57812 C 471.94364 515.89861 475.46931 512.85327 472.57812 514.02734 C 469.68695 515.20142 458.29847 520.46923 456.39453 515.67773 C 454.49056 510.88628 451.38643 508.04627 450.13477 507.57031 C 448.8831 507.09432 447.42049 501.11239 445.86914 500.39844 C 444.31776 499.68448 444.35227 493.49563 442.76562 492.49609 C 441.17903 491.49656 433.33495 476.05929 437.72461 480.51758 C 442.11427 484.97587 447.05117 488.86421 446.91016 490.86328 C 446.76918 492.86239 446.9613 495.76559 448.19531 496.79688 C 449.42933 497.82815 454.6299 502.20619 454.96484 503.93555 C 455.29971 505.66495 455.61765 511.61484 456.79883 512.1543 C 457.97997 512.69371 459.8314 511.8686 462.07031 511.12305 C 464.30923 510.37735 472.4005 507.91814 473.70508 506.36328 C 475.00962 504.80842 478.39475 504.26974 478.99414 504.12695 C 479.59354 503.98409 478.23541 502.17553 479.91016 502.06445 C 481.58494 501.95334 481.72728 499.98509 482.83789 499.81055 C 483.94854 499.63593 485.64087 500.25511 484.88281 499.01758 C 484.12475 497.78005 486.7679 495.95514 487.33203 493.89258 C 487.89616 491.83001 486.85738 489.98959 485.51758 489.38672 C 484.17777 488.78381 484.47805 490.11729 481.93945 488.18164 C 479.40086 486.24603 481.42794 483.23189 480 484.29492 C 478.57202 485.35791 479.03036 488.70553 476.63281 488.54688 C 474.23523 488.38813 471.46704 490.41803 470.70898 488.73633 C 469.95092 487.05455 472.20636 485.94485 471.0957 484.81836 C 469.98505 483.69191 469.35114 485.89737 469.49219 486.73828 C 469.63316 487.57915 467.53533 481.10543 466.125 480.97852 C 464.71467 480.85152 462.828 475.13931 465.57812 475.86914 C 468.3283 476.59897 469.19233 480.99467 470.90234 481.2168 C 472.61239 481.43903 476.08484 484.72326 477.14258 484.04102 C 478.20035 483.35877 478.94095 481.04141 480.43945 481.78711 C 481.93792 482.53277 480.82795 485.59524 482.9082 485.62695 C 484.98846 485.65719 490.40104 487.48423 495.56641 486.72266 C 500.73177 485.96112 501.45334 486.0084 502.05273 487.51562 C 502.65209 489.0229 504.71602 492.95633 507.00781 494.16211 C 509.2996 495.36793 511.60054 497.03405 511.95312 495.17773 C 512.30575 493.32146 511.05377 490.81471 512.71094 492.08398 C 514.36807 493.35323 512.99294 503.22275 516.74805 508.23633 C 520.50308 513.24995 521.70274 517.00924 522.51367 519.23047 C 523.32465 521.45166 524.71676 523.07105 525.4043 521.99219 C 526.09187 520.91332 527.57237 518.26328 528.20703 517.64453 C 528.84169 517.02575 530.58821 513.05901 529.79492 511.61523 C 529.0016 510.17145 528.50782 506.64897 530.53516 505.71289 C 532.56253 504.77682 541.28825 497.05099 541.57031 495.75 C 541.85227 494.44897 542.48743 493.08427 544.12695 493.32227 C 545.76644 493.56038 548.48065 492.51378 549.09766 491.86328 C 549.7147 491.21279 549.82134 491.89214 550.80859 493.36914 C 551.79584 494.84467 552.55399 496.68562 554.14062 497.06641 C 555.72723 497.44716 553.36496 498.17646 554.14062 499.16016 C 554.9163 500.14382 555.62 498.08255 556.00781 499.47852 C 556.39567 500.87471 557.80692 501.63651 557.03125 502.9375 C 556.25558 504.23849 556.09763 506.25256 558.14258 505.57031 C 560.1876 504.88807 560.94453 504.93558 561.20898 503.77734 C 561.47355 502.61915 561.98416 502.39631 562.72461 503.82422 C 563.46502 505.25212 562.16073 507.52117 563.32422 508.31445 C 564.48778 509.10774 565.75827 510.34574 565.59961 511.75781 C 565.44087 513.16988 566.18121 515.36034 565.65234 516.45508 C 565.12347 517.54982 564.62973 520.91283 567.04492 523.18164 C 569.46015 525.45042 570.1467 529.05174 570.74609 530.27344 C 571.34545 531.49509 573.86659 535.19094 575.41797 535.34961 C 576.96935 535.50835 578.94396 536.79435 578.0625 535.41406 C 577.18104 534.03374 575.27646 529.84563 575.57617 528.30664 C 575.87589 526.76765 569.53061 524.89399 569.74219 523.51367 C 569.95384 522.13335 569.24801 520.02425 567.9082 519.19922 C 566.5684 518.37419 567.11588 509.47262 568.91406 510.63086 C 570.71225 511.78906 575.27679 512.83676 576.14062 515.74023 C 577.00444 518.64367 578.57454 516.07375 578.45117 518.15234 C 578.32758 520.23078 577.357 522.78447 579.52539 520.64258 C 581.69378 518.50072 584.77973 515.20114 585.97852 514.94727 C 587.17731 514.69328 587.88128 509.87087 586.38281 507.57031 C 584.88434 505.26979 579.82592 502.42829 579.24414 500.46094 C 578.6624 498.49358 578.00942 495.54367 580.83008 494.33789 C 583.65074 493.13207 583.68648 492.83065 586.73633 493.30664 C 589.78618 493.7826 601.82646 490.37036 603.74805 483.3418 C 605.66963 476.31327 609.0366 471.16269 604.48828 465.84766 C 599.93996 460.53258 596.71435 460.13639 600.25781 457.45508 C 603.80131 454.77377 605.81182 453.43992 602.67383 453.1543 C 599.53584 452.86856 600.53991 450.52142 598.90039 452.58398 C 597.26091 454.64651 598.12564 455.6935 596.55664 454.01172 C 594.98765 452.32994 595.69165 451.82194 594.26367 451.45703 C 592.83573 451.09231 593.8402 449.30057 595.07422 449.44336 C 596.30827 449.58623 596.66232 449.29925 596.5918 447.98242 C 596.52112 446.66556 598.05401 442.82667 599.62305 444.08008 C 601.19204 445.33348 601.68498 444.41289 601.20898 446.79297 C 600.73299 449.17282 600.94456 449.3473 600.48633 450.01367 C 600.02798 450.68004 601.475 451.12489 602.69141 449.45898 C 603.90781 447.79308 604.57678 445.85739 606.39258 446.76172 C 608.20838 447.66608 608.01438 449.52128 607.76758 450.82227 C 607.52077 452.12329 607.94356 453.66385 609.16016 452.52148 C 610.37656 451.37916 611.2935 450.47422 611.78711 452.80664 C 612.28075 455.13891 613.02184 460.2477 612.89844 460.78711 C 612.77522 461.32656 614.67887 459.88249 615.63086 459.64453 C 616.58285 459.40642 618.85593 460.26263 618.69727 457.75586 C 618.53853 455.24905 616.77674 451.06143 615.64844 450.61719 C 614.52017 450.17294 613.10934 448.38014 612.43945 447.39648 C 611.76953 446.41279 613.4624 444.87411 614.30859 444.16016 C 615.15479 443.4462 616.54693 441.36647 615.17188 440.38281 C 613.79681 439.39911 615.06569 439.57468 615.96484 438.25781 C 616.86392 436.94095 616.8124 434.91048 618.20508 435.40234 C 619.5978 435.89417 619.35068 438.55972 620.33789 436.94141 C 621.32514 435.32309 623.84556 434.56103 624.56836 431.05469 C 625.29116 427.54834 628.25227 420.59977 627.45898 416.60156 C 626.66566 412.60339 625.46751 412.69783 625.2207 410.73047 C 624.9739 408.76311 625.7495 405.74918 624.56836 404.13086 C 623.38718 402.51254 622.36541 398.45011 620.28516 399.29102 C 618.2049 400.13188 619.70376 401.62237 617.46484 401.79688 C 615.22593 401.97148 614.04457 401.68653 613.49805 399.6875 C 612.95153 397.68843 611.6467 397.65689 610.90625 398.38672 C 610.16584 399.11655 610.28924 396.97521 611.57617 395.13477 C 612.8631 393.29436 614.5733 379.50728 616.91797 379.1582 C 619.26267 378.80897 627.037 378.50601 627.07227 376.95117 C 627.10628 375.39632 625.22103 373.70013 628.48242 374.54102 C 631.74381 375.3819 633.68299 374.49321 632.55469 375.8418 C 631.42646 377.19039 630.84361 379.71175 632.90625 377.72852 C 634.96889 375.7453 638.05568 375.85791 637.70312 374.66797 C 637.35051 373.47804 636.92649 373.7477 636.00977 373.25586 C 635.09308 372.76402 633.66503 368.44804 635.35742 366.33789 C 637.04986 364.22773 639.76463 359.89699 640.78711 362.30859 C 641.80962 364.72019 642.47941 367.59086 643.51953 366.62305 C 644.55962 365.65523 646.02308 362.2607 645.47656 360.91211 C 644.93008 359.56352 641.82699 356.8972 644.24219 356.84961 C 646.65742 356.80203 646.92152 356.23053 647.71484 359.95898 C 648.50817 363.68745 649.68927 364.11695 648.40234 365.29102 C 647.11541 366.46509 646.9229 364.65609 646.57031 369.68555 C 646.21768 374.71501 643.9967 378.80762 644.45508 383.50391 C 644.91342 388.2002 646.32287 391.67636 648.80859 395.62695 C 651.29431 399.57754 654.36214 400.60821 654.08008 403.25781 C 653.79813 405.90741 652.77461 408.33413 653.03906 408.96875 C 653.30363 409.60337 654.23903 410.429 654.66211 408.41406 C 655.08523 406.39908 658.06335 402.36807 657.09375 400.76562 C 656.12415 399.16319 655.48931 396.86268 657.14648 396.25977 C 658.80362 395.65686 655.41918 396.0866 656.35352 393.84961 C 657.28785 391.61254 656.98875 391.13586 658.85742 390.67578 C 660.72613 390.21566 657.95874 387.32876 657.37695 386.90039 C 656.79521 386.47202 654.85491 383.09279 656.40625 383.2832 C 657.95763 383.47369 659.70401 385.72663 658.7168 383.79102 C 657.72955 381.85541 654.83707 375.95301 654.44922 376.60352 C 654.0614 377.25401 653.23327 379.39525 652.26367 377.03125 C 651.29407 374.66725 652.93412 372.08133 652.03516 371.09766 C 651.13608 370.11397 650.39613 368.14571 652.54688 367.93945 C 654.69764 367.7332 657.49919 360.89673 661.81836 365.51367 C 666.13749 370.13062 660.16162 361.11794 663.03516 357.72266 C 665.90873 354.32737 665.11527 351.49812 667.79492 350.7207 C 670.47453 349.94327 673.68384 349.8643 670.22852 347.73828 C 666.7732 345.61226 663.82826 342.07286 662.43555 341.39062 C 662.31635 341.33224 662.24196 341.30679 662.16016 341.27539 C 662.40642 341.23337 662.73348 341.02919 662.96484 340.39258 C 663.58185 338.69494 665.0816 335.50447 663.88281 334.69531 C 662.68402 333.88615 663.35211 332.57025 664.51562 331.1582 C 665.67915 329.74614 665.66339 328.34915 667.25 329.66602 C 668.83665 330.98287 669.32838 330.90447 671.26758 330.63477 C 673.20682 330.36506 676.83902 331.93565 673.75391 328.96875 C 670.66879 326.00184 671.63839 322.89295 671.05664 321.19531 C 670.47486 319.49767 661.60842 313.88046 663.2832 320.08398 C 664.95795 326.28752 664.18248 321.38458 659.8457 318.17969 C 655.50892 314.9748 631.70817 315.34034 631.99023 317.75195 C 632.27219 320.16355 635.62234 320.90906 635.19922 322.6543 C 634.77614 324.39954 634.12311 326.01726 632.74805 324.49414 C 631.37298 322.97102 629.82262 324.73152 629.69922 322.73242 C 629.57601 320.73333 632.27329 320.13156 630.29883 319.95703 C 628.32437 319.78249 626.29681 317.67274 627.00195 319.41797 C 627.70714 321.16321 629.47024 322.4791 627.60156 322.95508 C 625.73289 323.43105 620.9555 322.73288 620.14453 324.89062 C 619.3336 327.04837 615.01346 326.7799 614.41406 324.93945 C 613.81467 323.09902 612.73969 319.43303 609.54883 320.24219 C 606.35792 321.05134 601.84552 323.87634 599.21875 323.27344 C 596.59202 322.67053 595.11139 318.76764 592.39648 319.02148 C 589.68161 319.27536 578.43278 320.0204 577.375 320.73438 C 576.31726 321.44832 576.40614 323.73282 577.78125 325.63672 C 579.15632 327.54061 571.41707 332.14116 568.34961 330.04688 C 565.28211 327.9526 570.606 332.31592 569.07227 333.50586 C 567.53853 334.69579 562.28494 335.59982 561.68555 331.98242 C 561.08615 328.36502 559.05954 324.4471 553.34766 324.84375 C 547.63581 325.24039 549.34517 325.58926 550.20898 327.42969 C 551.07283 329.27013 543.38565 332.28539 543.06836 329.95312 C 542.75088 327.62085 541.2175 327.52558 538.94336 328.41406 C 536.66918 329.30255 529.0185 332.3635 527.36133 334.53711 C 525.70419 336.71073 524.41772 338.09153 525.8457 333.34766 C 527.27365 328.60378 531.82162 321.46374 527.99609 318.57617 C 524.17057 315.68859 522.16047 312.69051 519.35742 314.16602 C 516.55437 315.64154 512.35859 313.84769 510.61328 312.94336 C 509.52249 312.37814 508.94806 311.7142 508.42969 311.81445 z M 570.71875 313.32617 C 570.5778 313.32839 570.42274 313.34333 570.25195 313.37109 C 568.88565 313.59321 570.86914 315.13086 570.86914 315.13086 C 570.86914 315.13086 570.55178 315.09212 571.55664 315.45703 C 572.5615 315.82194 571.6711 314.74362 573.29297 315.16406 C 574.91488 315.58451 572.89543 316.7263 572.63086 318.41602 C 572.36641 320.10573 573.70679 318.0739 574.80859 317.70898 C 575.91044 317.34407 577.50529 317.65455 578.71289 317.12305 C 579.92049 316.59154 577.98224 316.13162 577.03906 315.05273 C 576.09592 313.97386 573.84875 314.40936 573.46094 314.5918 C 573.07308 314.77424 572.05745 314.86939 572.02344 314.33789 C 571.99258 313.87283 571.70538 313.31066 570.71875 313.32617 z M 398.99414 317.71289 C 396.35106 317.70762 393.48545 318.11823 393.0293 318.56445 C 392.21851 319.35775 392.53487 321.65927 391.95312 320.94531 C 391.37135 320.23135 390.35015 319.53283 390.19141 321.23047 C 390.03274 322.92812 388.34098 322.75367 386.61328 321.61133 C 384.88562 320.469 386.04797 320.67452 384.32031 325.13281 C 382.59265 329.5911 393.25781 339.79297 393.25781 339.79297 C 393.25781 339.79297 393.43484 339.87308 394.35156 340 C 395.26829 340.12692 394.22744 338.20631 393.89258 335.9375 C 393.5576 333.66869 395.07333 334.47905 395.37305 331.22656 C 395.67273 327.97407 395.67294 328.24369 397.33008 329.56055 C 398.98725 330.87741 398.5831 331.43152 398.23047 333.24023 C 397.87822 335.04893 397.41989 333.97011 398.10742 334.65234 C 398.79496 335.33457 399.67536 334.57459 401.17383 335.19336 C 402.67226 335.81213 402.21377 333.43103 402.53125 331.66992 C 402.84858 329.90882 398.58216 326.48143 397.17188 324.10156 C 395.76151 321.72169 400.2918 325.48277 404.06445 322.5 C 407.8371 319.51723 404.7712 320.23086 403.51953 318.66016 C 402.97191 317.97296 401.04987 317.71699 398.99414 317.71289 z M 461.39453 328.16992 C 460.38025 328.12724 460.47659 330.23754 459.89648 331.66992 C 459.20895 333.36753 456.40564 332.92393 454.58984 333.43164 C 452.77405 333.93934 449.28324 340.66588 448.5957 342.34766 C 447.90817 344.02943 446.64013 354.77063 447.48633 357.6582 C 448.33253 360.54578 456.84617 362.03803 457.35742 361.7207 C 458.90877 361.40338 457.26978 359.54649 455.8418 358.92773 C 454.41385 358.30896 454.07901 356.35647 453.0918 354.10352 C 452.10474 351.85057 453.0561 352.34424 453.21484 346.52148 C 453.37351 340.69874 458.0809 337.90593 460.49609 335.22461 C 462.91129 332.54329 464.0048 333.08187 465.04492 331.16211 C 466.08505 329.24234 463.84495 329.54419 462.08203 328.43359 C 461.80657 328.26006 461.58236 328.17783 461.39453 328.16992 z M 447.55078 367.04297 C 447.0674 367.05575 446.47459 367.17051 445.90039 367.36719 C 444.23014 367.93935 445.72433 369.2283 446.18555 369.48633 C 446.18555 369.48633 447.03451 369.44205 448.21875 368.18555 C 448.99591 367.36096 448.4736 367.01856 447.55078 367.04297 z M 655.43555 370.54688 C 655.07557 370.58181 654.3552 371.27277 653.55273 372.15625 C 652.26875 373.56982 654.05273 374.56836 654.05273 374.56836 C 654.53882 374.81517 654.2766 374.2656 654.65039 373.30078 C 655.02437 372.33596 655.36037 372.76264 655.63477 371.29297 C 655.73761 370.74185 655.65153 370.52591 655.43555 370.54688 z M 335.71484 379.98242 C 334.759 380.02819 329.76509 382.64221 333.11914 383.63086 C 336.69681 384.68542 336.29681 384.75265 333.00586 385.42578 L 333.00586 385.42773 C 332.10832 385.60726 332.42106 385.41492 333.11914 386.26758 C 333.81722 387.1202 336.0613 386.54958 335.625 387.75 C 335.1887 388.95042 331.78494 393.06775 343.06641 390.59961 C 354.34788 388.13146 348.40074 382.039 347.67773 381.0293 C 346.95472 380.01948 345.87146 380.50229 344.30078 381.29883 C 342.7301 382.09529 339.43872 381.65782 338.60352 381.64648 C 337.76833 381.63526 338.69038 383.30621 337.89258 383.82227 C 337.09477 384.33836 336.23605 380.34457 335.84961 380.00781 C 335.82546 379.98678 335.77857 379.97937 335.71484 379.98242 z M 664.8418 384.72461 C 664.22528 384.75932 663.94123 385.85658 665.29688 387.04297 L 665.29688 387.04492 C 665.29687 387.04492 665.07132 386.99894 665.86914 387.85156 C 666.66696 388.70419 667.34152 387.85257 667.80273 387.4375 C 668.26399 387.02239 668.43701 387.63975 668.83594 388.00977 C 669.23483 388.37978 670.46988 388.68199 670.80664 388.07617 C 671.14321 387.47035 669.4855 387.11133 668.91211 386.62891 C 668.33868 386.14653 668.03868 387.13422 667.32812 387.25781 C 666.61758 387.38121 666.44395 386.12342 665.52148 385.08008 C 665.29084 384.81924 665.0473 384.71304 664.8418 384.72461 z M 624.5293 397.17383 C 624.26265 397.19167 624.13157 397.50401 624.21094 398.01172 C 624.3696 399.02713 624.70436 399.48839 624.88086 401.28125 C 625.05714 403.07407 626.80259 407.23058 627.52539 408.89648 C 628.24819 410.56239 629.23462 411.79869 629.81641 413.60742 C 630.39815 415.41611 629.88626 416.0673 631.38477 418.06641 C 632.88339 420.06547 633.11328 424.80859 633.11328 424.80859 L 633.11328 424.81055 C 634.43555 425.14375 633.67795 424.68306 634.27734 423.30273 C 634.87674 421.92241 634.71819 424.44496 636.26953 425.23828 C 637.82103 426.03157 637.39705 424.74683 636.5332 423.66797 C 635.66939 422.5891 633.66083 420.16065 632.76172 418.9707 C 631.86253 417.78079 632.23203 415.76683 633.04297 414.5293 C 633.8539 413.29177 634.08299 415.92465 635.77539 416.38477 C 637.46779 416.84485 632.72475 410.1176 630.64453 408.54688 C 628.56428 406.97618 628.51154 405.32549 628.56445 403.18359 C 628.61733 401.04174 626.57297 399.45603 625.65625 398.10742 C 625.19789 397.43312 624.79595 397.15599 624.5293 397.17383 z M 403.58008 400.35547 C 403.14115 400.39778 404.16406 401.82617 404.16406 401.82617 C 404.38842 401.8374 404.6133 400.69337 403.76562 400.39062 C 403.68617 400.36224 403.62548 400.35109 403.58008 400.35547 z M 364.74414 406.35156 C 363.55928 406.37192 361.13141 406.96692 360.19531 407.40234 C 359.08586 407.91844 359.82213 411.59984 364.74609 417.47852 C 365.7165 418.63707 366.19788 419.82741 366.34766 420.99414 C 365.48067 421.02454 362.23407 421.24195 363.87305 422.79492 C 365.75536 424.57871 364.01018 424.24253 363.02539 425.03906 C 362.0406 425.8356 362.19017 426.2061 363.87305 426.22852 C 364.3368 426.23476 364.73907 426.24036 365.09766 426.24609 C 363.81289 428.52381 362.04102 430.08789 362.04102 430.08789 C 359.42322 432.34287 376.18885 428.56119 374.40625 426.82227 C 372.62364 425.08338 374.98059 422.70523 374.0332 421.91992 C 373.0858 421.13454 372.40004 422.66094 372.27539 422.02148 C 372.15073 421.38199 371.78834 419.0939 370.10547 417.82617 C 368.42259 416.55844 369.28254 414.51586 367.33789 413.82031 C 365.39323 413.12473 367.78802 410.52293 368.26172 409.54688 C 368.73542 408.5707 366.98888 409.14274 366.06641 409.32227 C 365.14393 409.50176 364.95662 409.59061 365.51758 408.42383 C 366.07855 407.25709 366.0038 406.66244 365.25586 406.4043 C 365.13899 406.36398 364.96356 406.34779 364.74414 406.35156 z M 402.25586 408.20117 C 402.09678 408.21772 401.95205 408.46823 401.8457 408.98438 C 401.49647 410.67842 402.73006 412.71926 403.29102 411.32812 C 403.05687 409.33899 402.61889 408.16342 402.25586 408.20117 z M 396.21094 415.74805 C 395.19959 415.78682 396.69727 416.96094 396.69727 416.96094 C 396.69727 416.96094 398.00713 415.91699 396.48633 415.75977 C 396.3794 415.74872 396.28743 415.74511 396.21094 415.74805 z M 358.61719 416.13672 C 358.42572 416.13413 358.26846 416.15575 358.16406 416.19922 C 357.32884 416.54701 357.31654 417.25279 357.64062 418.54297 C 357.96473 419.83311 353.48987 417.48958 354.63672 420.63086 C 355.78357 423.7721 353.66406 424.20898 353.66406 424.20898 C 353.6142 426.60982 355.95737 426.2617 356.92969 425.29688 C 357.90202 424.33208 359.44788 424.47748 360.80664 423.00781 C 362.1654 421.53814 359.11112 421.68459 361.16797 419.33984 C 362.9677 417.28819 359.95744 416.15485 358.61719 416.13672 z M 650.70508 422.32617 C 650.03946 422.35599 640.99728 430.77014 639.31836 430.98047 C 637.29102 431.2343 634.92836 427.17354 633.35938 427.31641 C 631.79038 427.4592 634.2946 430.1564 635.07031 432.07617 C 635.84598 433.99595 633.57152 434.89968 632.47852 436.23242 C 631.38551 437.56512 634.66424 442.38932 635.95117 444.15039 C 637.2381 445.9115 635.26499 447.76734 635.24609 451.25781 C 635.22848 454.74828 626.41367 457.89055 625.19727 458.14453 C 623.98082 458.39836 621.70646 462.09436 620.56055 463.85547 C 619.41467 465.61658 621.58363 467.99663 623.73438 469.37695 C 625.88514 470.75727 625.07422 466.41016 625.07422 466.41016 L 625.07617 466.41016 C 624.24759 457.46186 625.46375 464.41051 626.52148 464.90234 C 627.57911 465.39417 627.15572 463.9033 627.34961 462.68164 C 627.5435 461.45979 629.06055 463.04687 629.06055 463.04688 C 629.06055 463.04687 629.14709 460.93651 629.60547 462.03125 C 630.06381 463.12603 630.98136 462.52337 632.02148 462.14258 C 633.06161 461.76179 633.57248 459.26967 634.8418 458.87305 C 636.11111 458.47639 637.6988 458.42979 639.86719 457.65234 C 642.03558 456.87493 640.02461 454.62165 639.61914 452.6543 C 639.2136 450.68694 639.07404 450.35418 639.12695 448.89453 C 639.17983 447.43488 639.9012 446.79996 639.86719 445.18164 C 639.83192 443.56336 638.72056 442.1191 638.10352 440.83398 C 637.48651 439.54883 636.11151 439.34261 636.05859 438.64453 C 636.00572 437.94638 637.59194 439.35933 636.86914 438.07422 C 636.14631 436.78899 635.61864 437.66122 634.4375 436.94727 C 633.25636 436.23331 635.63537 436.40806 636.78125 435.77344 C 637.92716 435.13882 638.29702 437.24812 640.27148 437.62891 C 642.24466 438.00969 640.23501 435.93139 640.25391 434.66211 C 640.27152 433.39287 641.50391 434.36136 642.86133 434.23438 C 644.21882 434.10746 642.704 432.78973 643.02148 431.33008 C 643.33878 429.87042 645.6831 428.57047 649.89648 423.54102 C 650.62066 422.67658 650.84323 422.31998 650.70508 422.32617 z M 387.35938 447.48047 C 387.12846 447.48247 386.94195 447.64277 386.86133 448.07422 C 386.63682 449.27463 387.46094 451.10352 387.46094 451.10352 C 387.46094 451.10352 385.9885 452.55 386.21289 454.1543 C 386.43739 455.75859 386.0881 458.36154 387.32227 457.62109 C 388.55636 456.88065 389.15638 455.44582 389.05664 454.53711 C 388.95686 453.62836 388.56992 451.92258 388.2832 451.67578 C 387.99634 451.42898 388.2207 450.75586 388.2207 450.75586 C 388.2207 450.75586 389.26874 448.91589 388.69531 448.34375 C 388.32798 447.9772 387.771 447.4769 387.35938 447.48047 z M 223.46094 482.08594 C 223.38574 482.09228 223.29934 482.16833 223.20117 482.33398 C 222.75241 483.09125 221.94299 482.77764 221.52539 482.69922 C 221.10779 482.6206 221.25121 482.37386 220.83984 482.6543 C 220.83984 482.6543 219.90451 483.56722 220.97656 483.62891 C 222.04861 483.69051 222.59121 483.34377 223.08984 484.08984 C 223.58847 484.83592 224.31733 485.13915 223.51953 485.58789 C 222.72172 486.03663 221.40659 485.34578 221.53125 486.31055 C 221.6559 487.27535 220.0426 487.35366 221.18945 487.9707 C 222.33629 488.58775 221.60695 490.19824 222.42969 489.47461 C 223.25242 488.75102 221.88115 487.08561 223.4082 487.03516 C 224.93525 486.98451 224.85454 486.37164 225.22852 487.21875 C 225.6025 488.06578 225.13486 488.45338 225.88281 489.37891 C 226.53436 490.18519 226.65587 491.21346 227.26562 491.61328 C 227.26693 491.61542 227.27734 491.63281 227.27734 491.63281 C 227.27734 491.63281 228.02355 492.04972 228.62109 492.33203 C 228.64215 492.37375 228.66291 492.41975 228.6875 492.4707 C 228.89318 492.89703 228.89269 493.8054 229.2168 492.85742 C 229.24678 492.76972 229.2729 492.67793 229.29297 492.58594 C 229.35865 492.58869 229.37221 492.55645 229.3125 492.47461 C 229.46569 491.60256 229.21662 490.67998 228.92383 491.16797 C 228.76127 491.43889 228.65336 491.6536 228.51562 491.75195 C 227.42194 490.79465 226.85109 489.79494 226.57422 489.16406 C 226.98127 488.89772 227.66837 489.10566 227.22852 488.38086 C 226.71119 487.52824 226.18036 487.67872 225.71289 487.21875 C 225.24543 486.75878 224.16829 484.62718 224 483.66797 C 223.86851 482.91859 223.72948 482.06327 223.46094 482.08594 z M 609.32812 482.58984 C 608.92675 482.59931 608.16999 483.06349 606.88086 484.20508 C 601.38055 489.07587 607.60352 492.05859 607.60352 492.05859 C 607.60352 492.05859 607.97425 491.83714 608.08008 489.31445 C 608.16104 487.38305 610.63931 482.55891 609.32812 482.58984 z M 214.80273 490.57422 C 214.67964 490.57194 214.55552 490.57582 214.43164 490.58984 C 212.44959 490.81435 209.20261 491.10142 209.01562 491.66797 C 208.72268 491.71295 206.04219 493.03566 208.17383 492.82812 C 210.30547 492.62064 211.50915 491.32598 212.5625 491.62891 C 213.61585 491.93165 216.14091 492.54195 216.52734 493.00195 C 216.91379 493.46192 219.21987 494.20823 219.625 494.19141 C 220.03014 494.17629 220.06092 494.69665 220.05469 495.29688 C 220.04864 495.89705 221.16414 495.77911 221.61914 495.86328 C 222.07413 495.94756 223.48206 495.67205 222.64062 496.6875 C 221.7992 497.70279 221.26918 498.584 221.99219 498.14648 C 222.7152 497.70893 224.11187 497.43925 225.01562 497.47852 C 225.91939 497.51782 228.10756 498.23073 227.87695 497.35547 C 227.64633 496.48039 225.51347 494.90352 224.73438 494.8418 C 223.95527 494.78019 221.05092 493.14243 219.67969 492.74414 C 218.39416 492.37078 216.64908 490.60833 214.80273 490.57422 z M 61.109375 491.10547 C 60.514061 491.11127 60.404229 491.22917 61.628906 491.66211 C 63.806111 492.43158 65.992285 493.65299 66.970703 494.38281 C 67.949125 495.11264 68.749914 495.61341 68.441406 496.76367 C 68.132883 497.91393 67.551488 498.96062 68.662109 498.5957 C 69.77275 498.23098 71.535091 498.32646 70.882812 497.39844 C 70.230531 496.4703 68.679605 493.13873 62.976562 491.20312 C 62.32869 491.16494 61.572397 491.10096 61.109375 491.10547 z M 229.62891 494.78711 C 229.59011 494.788 229.55273 494.79059 229.51562 494.79297 C 228.72408 494.84346 229.09785 495.19607 229.87695 495.52148 C 229.87695 495.52148 229.97052 495.51086 230.75586 495.27539 C 231.50439 495.05082 230.41776 494.76908 229.62891 494.78711 z M 587.28516 495.33984 C 586.37365 495.3503 585.22551 496.84168 583.8457 498.41406 C 581.92601 500.6018 587.16211 500.24414 587.16211 500.24414 L 588.70703 499.35742 C 590.25278 498.47112 589.25579 497.9878 588.24609 496.0918 C 587.9621 495.55856 587.64183 495.33575 587.28516 495.33984 z M 229.90625 497.06055 C 229.52734 497.07764 229.58229 497.40807 230.31445 498.23633 C 233.6615 502.0227 228.1875 500.13867 228.1875 500.13867 C 227.45824 499.92554 227.72155 500.95779 228.45703 501.45703 C 229.19251 501.95616 231.22928 501.37736 231.93359 501.51758 C 232.6379 501.6578 232.37101 502.80289 233.9043 502.98242 C 235.43758 503.16191 233.77299 502.00084 234.46484 500.92383 C 235.15669 499.84685 237.18139 501.27644 238.65234 501.51758 C 240.12329 501.75875 240.90977 499.83413 239.35156 500.45117 C 238.1342 500.93321 231.25949 496.9995 229.90625 497.06055 z M 609.68555 499.12695 C 609.00261 499.15205 608.35973 499.71182 607.77539 499.78906 C 606.84041 499.91246 605.54399 504.70226 607.61328 508.10156 C 609.68261 511.50083 608.54728 511.14234 604.00977 518.41211 C 599.47225 525.68192 605.25586 519.63477 605.25586 519.63477 L 607.67578 517.11133 C 607.98759 516.71864 607.73828 516.60612 607.73828 515.83203 C 607.73828 515.05795 609.02081 513.18436 609.78125 512.89258 C 610.5415 512.60091 610.8542 513.87982 610.81641 515.25977 C 610.77899 516.63967 612.59878 518.10926 614.14453 519.85938 C 615.69028 521.60951 613.39623 521.45271 612.58594 522.01367 C 611.77557 522.57459 611.45258 523.69513 611.95117 525.83789 C 612.4498 527.98069 612.49856 526.05248 613.5332 523.46094 C 614.56785 520.86939 615.57862 525.27772 617.46094 526.55664 C 619.34326 527.83559 620.90113 525.12104 621.73633 523.19141 C 622.57153 521.26177 619.77996 513.05011 617.74805 511.93945 C 615.71614 510.82876 616.79992 510.13303 616.58789 509.39258 C 616.37597 508.65209 614.19572 508.98786 613.63477 508.58398 C 613.07385 508.1801 611.12794 508.51619 610.49219 507.16992 C 609.85643 505.82365 610.57969 505.98139 612.15039 504.0293 C 613.72105 502.07725 612.11242 501.44956 610.95312 499.87891 C 610.51839 499.28998 610.09531 499.1119 609.68555 499.12695 z M 243.52734 500.44727 C 243.31359 500.44792 243.05649 500.47664 242.75391 500.54102 C 239.77458 501.17488 242.74219 501.97266 242.74219 501.97266 C 244.02456 502.64293 245.41823 500.44145 243.52734 500.44727 z M 220.80078 500.67773 C 217.19492 500.71682 221.84961 502.11719 221.84961 502.11719 L 221.84961 502.11914 C 222.16749 501.99555 222.7784 502.19171 223.44531 502.10742 C 224.11223 502.02329 226.06294 500.78822 221.39453 500.68164 C 221.1757 500.67664 220.97812 500.67581 220.80078 500.67773 z M 250.6582 500.76562 C 249.40539 500.79964 249.1741 501.26527 249.98438 501.87109 C 250.79464 502.47691 251.34375 503.02616 251.76758 504.49023 C 252.19142 505.95427 252.61448 504.8265 252.62695 507.90625 C 252.63943 510.98581 252.88257 512.50618 252.23438 513.25781 C 251.58616 514.00948 250.88743 514.81788 251.85352 514.36914 C 252.81962 513.92036 253.56804 513.14126 253.73633 511.62109 C 253.90463 510.10093 253.95588 507.26655 253.68164 506.76172 C 253.4074 506.25689 252.32888 502.61718 251.89258 502.35352 C 251.45628 502.09008 250.73308 502.29194 250.68945 501.69727 C 250.64584 501.10267 250.6582 500.76562 250.6582 500.76562 z M 554.38672 510.04492 C 554.10212 510.04222 553.72461 510.96484 553.72461 510.96484 C 553.72461 510.96484 552.15632 515.5425 553.47852 517.24805 C 554.80071 518.95363 555.53168 523.18941 556.06055 524.60938 C 556.58942 526.02937 557.23385 524.78348 557.46289 523.86328 C 557.69208 522.94304 556.44893 522.43614 555.54102 520.72266 C 554.63314 519.00913 554.66708 516.63787 554.60547 514.37695 C 554.54386 512.11612 554.84428 511.98808 554.65039 510.58398 C 554.59585 510.18907 554.49808 510.04598 554.38672 510.04492 z M 478.04102 511.99023 C 477.45846 512.02444 477.11051 512.86821 478.0625 513.70117 C 478.0625 513.70117 479.4907 513.04914 478.66211 512.25586 C 478.45501 512.05754 478.2352 511.97883 478.04102 511.99023 z M 529.92773 518.69141 C 529.20981 518.72556 529.08203 520.93555 529.08203 520.93555 C 528.00664 527.40878 530.45601 526.34464 532.16602 525.90039 C 533.87606 525.45614 533.15394 524.17254 531.25 520.26953 C 530.66993 519.08033 530.24233 518.67644 529.92773 518.69141 z M 601.49609 524.45508 C 600.30641 524.51028 600.05421 527.2964 599.28125 527.26758 C 598.47031 527.23583 598.87706 528.81369 598.49805 529.76562 C 598.119 530.7175 597.66839 529.63816 596.83984 529.62305 C 596.01126 529.60721 594.23125 532.63048 592.95312 532.28125 C 591.67501 531.93221 591.25163 534.39089 590.34375 535.14453 C 589.43583 535.89821 588.924 534.39054 587.1875 535.81055 C 585.45103 537.23052 587.97354 540.52392 588.29102 541.13477 C 589.16371 542.14224 589.18056 541.65853 588.81055 543.18164 C 588.44034 544.70468 589.5244 544.60173 590.87305 544.83984 C 592.2217 545.07773 595.02493 544.98234 596.52344 545.23633 C 598.02183 545.4902 597.38619 546.25201 597.90625 547.02148 C 598.42631 547.791 598.66386 546.96417 599.07812 545.98047 C 599.49244 544.99753 600.05799 544.94224 600.93945 545.01367 C 601.82099 545.0851 601.52983 543.29135 601.66211 541.98242 C 601.79432 540.6735 603.30059 538.58776 603.64453 537.56445 C 603.98832 536.54092 605.08154 537.27984 606.27148 536.85938 C 607.46147 536.43894 604.94907 535.43864 604.31445 534.97852 C 603.67961 534.5184 603.87519 533.30553 603.53125 531.57617 C 603.1875 529.84677 605.16932 528.62525 606.05078 528.63281 C 606.93232 528.64075 607.44497 527.72035 607.29492 527.22852 C 607.14506 526.73669 604.43769 526.89485 604.09375 526.10156 C 603.75 525.30828 603.02834 524.70491 601.67969 524.4668 C 601.61647 524.45564 601.5546 524.45236 601.49609 524.45508 z M 559.31055 526.30078 C 558.13798 526.40785 558.87527 529.02372 560.53711 529.40234 C 562.5067 529.85112 564.92533 532.76861 565.32422 533.75586 C 565.32422 533.75586 566.3713 534.69702 567.44336 537.27734 C 568.51538 539.85767 573.85025 546.92506 575.37109 549.05664 C 576.8919 551.18803 578.2635 549.84311 580.48242 551.09961 C 582.70142 552.35611 578.16357 551.56985 580.68164 553.92578 C 583.19971 556.28175 617.88115 557.65045 620.97266 557.60547 C 624.06416 557.56061 622.7914 555.18328 619.10156 555.78906 C 615.41169 556.39488 586.89007 552.22176 583.57422 551.36914 C 580.25825 550.51652 580.60776 547.19611 580.4082 545.1543 C 580.20876 543.11244 577.5153 539.97073 576.11914 538.13086 C 574.72298 536.29099 571.10822 533.91295 569.13867 532.83594 C 567.16908 531.75892 565.87342 528.9533 564.72656 528.21289 C 563.57974 527.47241 562.4328 527.69604 560.16406 526.5293 C 559.80954 526.34699 559.52769 526.28095 559.31055 526.30078 z M 619.14648 535.23828 C 618.93952 535.25348 618.59136 535.46607 618.29688 535.79492 C 617.62374 536.54671 612.89851 537.05105 611.36523 536.35547 C 609.83196 535.65992 609.56976 536.9045 608.37305 537.56641 C 607.17634 538.22831 606.34181 542.98512 605.49414 545.58789 C 604.64647 548.19062 606.90128 543.2661 606.92773 546.56445 C 606.95268 549.86277 609.20898 550.77148 609.20898 550.77148 C 609.95692 550.65927 609.27162 549.69544 608.74805 548.38281 C 608.22451 547.07022 608.95923 546.63219 609.24609 544.60156 C 609.53281 542.57097 610.4552 544.90454 611.20312 547.01367 C 611.95106 549.1228 613.27189 549.34772 614.83008 549.875 C 616.3883 550.40228 614.4934 547.13709 613.6582 545.61133 C 612.82285 544.08557 612.05054 543.13135 613.09766 542.17773 C 614.14477 541.22427 615.08069 542.0551 616.01562 541.49414 C 616.95053 540.93322 615.80243 540.31565 615.25391 539.59766 C 614.70542 538.87966 613.47165 539.94493 612.67383 540.24805 C 611.87605 540.55116 610.21904 541.03446 608.91016 540.36133 C 607.60127 539.68819 609.10793 538.86866 610.14258 537.9375 C 611.17726 537.00634 612.88615 538.44135 614.81836 538.48633 C 616.75053 538.53119 617.71087 537.76998 618.82031 536.33398 C 619.4444 535.52624 619.41258 535.21874 619.14648 535.23828 z M 192.88477 538.19336 C 192.49051 538.21805 193.17279 539.60086 194.30078 540.94141 C 194.30078 540.94141 194.26649 540.95815 194.98047 540.88672 C 195.69445 540.81532 194.3977 539.16417 193.30469 538.38672 C 193.10829 538.24703 192.97113 538.18795 192.88477 538.19336 z M 633.92773 539.06445 C 633.75572 539.06756 633.57293 539.07762 633.37891 539.09375 C 633.37891 539.09375 631.22362 539.69796 630.16406 540.37109 C 629.10447 541.04423 628.53104 541.67393 630.16406 541.80859 C 631.79705 541.94314 634.27717 546.00363 634.21484 546.69922 C 634.15248 547.39477 634.94966 547.32788 635.39844 546.18359 C 635.84718 545.03927 636.1212 546.30634 637.29297 546.77734 C 638.46474 547.24854 642.23023 547.45171 643.27734 548.91016 C 644.3245 550.3686 645.93227 551.37761 645.5957 552.44336 C 645.25895 553.50915 644.91004 553.07087 644.16211 554.0918 C 643.41414 555.11269 642.29281 556.02135 643.50195 555.88672 C 644.71114 555.75217 646.40543 554.04801 647.52734 555.16992 C 648.64926 556.2918 650.02205 559.45578 653.07617 557.76172 C 656.13026 556.0677 654.73289 551.93797 657.88672 554.27148 C 661.04055 556.605 661.75117 559.47725 663.45898 559.66797 C 665.16676 559.85883 666.02795 559.29855 666.96289 559.82617 C 667.89779 560.35345 669.03126 561.99127 668.60742 560.61133 C 668.18359 559.23142 662.88495 554.86643 662.52344 553.66602 C 662.16174 552.4656 661.66446 552.1845 662.69922 552.11719 C 663.73386 552.04991 664.04502 551.8158 663.52148 551.09766 C 662.99791 550.37962 665.00483 550.1655 665.47852 550.5918 C 665.9522 551.01813 667.9729 552.01659 669.20703 551.51172 C 670.44112 551.00689 672.32341 548.14648 673.02148 548.14648 C 673.71956 548.14648 674.6788 548.94383 674.62891 548.11328 C 674.57902 547.28307 674.21755 545.40796 672.08594 544.26367 C 669.95428 543.11934 668.30927 542.39012 668.13477 543.29883 C 667.96015 544.20754 668.98111 544.51162 669.91602 544.85938 C 670.85096 545.20708 672.39706 545.12839 672.32227 545.85742 C 672.24743 546.58661 671.52544 546.01461 671.26367 546.73242 C 671.00175 547.45042 671.31345 548.44918 670.51562 548.8418 C 669.71781 549.23449 667.53607 549.96346 666.31445 549.58203 C 665.0928 549.20056 663.95811 548.48263 663.22266 549.23438 C 662.48716 549.986 661.00432 550.48046 660.01953 549.51562 C 659.03474 548.55084 660.95344 548.89755 659.74414 548.04492 C 658.53496 547.19226 654.03582 544.53322 652.00391 544.0957 C 649.97199 543.65819 646.1945 542.81662 644.61133 542.07617 C 643.0282 541.33576 642.27912 540.88812 642.2168 542.11133 C 642.15443 543.33419 641.25791 543.00851 640.73438 543.68164 C 640.2108 544.35477 641.61905 546.49844 639.59961 545.5 C 637.58017 544.50152 636.19598 542.77312 636.44531 541.53906 C 636.67917 540.38214 636.50798 539.01783 633.92773 539.06445 z M 677.58789 547.57227 C 677.51609 547.57729 677.46398 547.62064 677.43359 547.70898 C 676.41142 548.87572 676.88474 551.15367 677.79492 551.97266 C 678.70492 552.7916 680.92391 551.69224 681.24805 553.375 C 681.57233 555.05783 681.30949 555.84277 682.46875 556.30273 C 683.62808 556.7627 683.36694 554.00334 684.41406 554.86719 C 685.46122 555.73104 685.7601 558.47972 686.73242 558.72656 C 687.70478 558.97337 689.52591 560.02768 690.13672 560.82422 C 690.74753 561.62075 692.08048 562.22689 691.94336 561.18359 C 691.80616 560.14026 690.47267 556.56177 689.625 555.88867 C 688.77733 555.21554 682.05744 552.64609 681.35938 551.80469 C 680.72674 551.04217 678.28197 547.52368 677.58789 547.57227 z M 652.21484 560.14844 C 651.55797 560.2717 650.86498 563.18896 650.06641 565.81836 C 649.0442 569.18403 650.91458 571.38269 649.24414 574.05273 C 647.57374 576.72282 640.71771 574.61382 639.49609 571.38281 C 638.27444 568.15177 638.39884 565.93087 640.54297 565.16797 C 642.68706 564.40511 642.81232 562.87883 638.34961 562.78906 C 633.88689 562.69949 620.44757 565.28036 614.31445 571.9668 C 608.18134 578.6532 608.13227 581.48017 604.39258 581.16602 C 600.65285 580.85194 595.24231 581.70519 593.44727 584.64453 C 591.65218 587.58387 590.30666 589.78242 591.57812 595.59375 C 591.57812 595.59375 594.36882 607.59783 592.54883 610.58203 C 590.7288 613.56623 590.62992 615.2717 593.12305 615.49609 C 595.61621 615.7206 599.70468 613.63378 602.12305 613.61133 C 604.54138 613.58865 609.07904 613.96907 609.97656 611.38867 C 610.87409 608.80835 622.19249 607.395 625.85742 609.72852 C 629.52235 612.062 630.29514 610.8504 630.51953 614.41797 C 630.74404 617.98554 631.14405 617.46969 633.23828 615.5625 C 635.33252 613.65527 636.40465 611.23199 636.95312 618.32227 C 637.50161 625.41255 637.97493 626.48912 639.79492 628.26172 C 641.61492 630.03428 655.87577 632.14411 657.29688 627.05078 C 658.71793 621.95741 662.78236 613.90283 665.17578 612.4668 C 667.5692 611.0308 673.00368 598.93667 664.40234 586.86523 C 655.80101 574.79376 658.44362 567.18735 656.54883 567.97266 C 654.65404 568.75797 653.58253 562.92356 652.75977 560.76953 C 652.57979 560.29835 652.39877 560.11392 652.21484 560.14844 z M 468.54688 562.14062 C 468.14491 562.18219 467.66057 562.77274 467.09961 564.20312 C 464.70619 570.30615 458.59766 569.90234 458.59766 569.90234 C 458.59766 569.90234 455.7545 573.17765 456.95117 574.97266 C 458.14788 576.76767 457.27554 578.47272 456.32812 579.48242 C 455.38065 580.49208 453.61004 584.10423 455.55469 588.54688 C 457.49937 592.98951 460.96495 589.64689 462.13672 589.08594 C 463.30852 588.52498 468.52031 570.88876 469.51758 569.09375 C 470.28111 567.71944 469.85995 562.00486 468.54688 562.14062 z M 699.32422 569.875 C 698.91685 569.8772 698.64612 570.01238 698.65039 570.37109 C 698.65039 570.37109 702.48885 578.52648 702.83789 580.04102 C 703.18712 581.55555 704.25884 581.84753 703.78516 579.82812 C 703.31147 577.80877 703.39939 571.16747 702.17773 570.67383 C 701.37602 570.3499 700.10193 569.87081 699.32422 569.875 z M 726.31055 573.48438 C 723.06945 573.58528 718.8939 575.87418 719.23047 576.99609 C 719.56685 578.11797 723.48159 578.33088 722.74609 576.86133 C 722.01064 575.3917 720.96379 574.87648 722.87109 574.91016 C 724.77836 574.94417 727.05848 574.13509 726.31055 573.48438 z M 483.42578 578.58203 C 483.36256 578.58251 483.2962 578.58714 483.22852 578.59766 C 482.36229 578.73228 483.50391 579.33398 483.50391 579.33398 C 484.56103 579.22022 484.17174 578.57637 483.42578 578.58203 z M 479.48633 580.04102 C 479.23177 580.04384 478.9632 580.08056 478.72266 580.15234 C 477.53842 580.50573 479.25195 581.33008 479.25195 581.33008 C 481.26354 580.52541 480.48496 580.02995 479.48633 580.04102 z M 693.80859 581.87695 C 693.48311 581.89431 693.38062 583.0184 693.72656 584.1543 L 693.72656 584.61523 C 693.72656 584.61523 696.43037 587.30723 697.52734 587.89062 C 698.62439 588.474 698.26421 586.91325 697.60352 586.63281 C 696.94285 586.35237 694.79756 583.39141 694.19922 582.26953 C 694.04962 581.98906 693.91709 581.87117 693.80859 581.87695 z M 697.62695 583.04883 C 699.07296 584.94479 700.50666 587.5478 700.65625 586.56055 C 700.80592 585.5733 699.19915 583.29577 698.61328 583.18359 C 698.02738 583.07134 697.62695 583.04883 697.62695 583.04883 z M 704.43555 620.91602 C 704.35548 620.92398 704.27792 620.9737 704.20312 621.06836 C 703.00642 622.58293 704.52729 625.15209 704.58984 628.65234 C 704.65221 632.15264 704.40313 634.92381 703.44336 635.36133 C 702.48351 635.79888 701.36101 635.15874 701.23633 636.04492 C 701.1116 636.93118 703.05691 637.82894 703.01953 639.07422 C 702.98174 640.3195 702.65647 642.12563 701.67188 642.27148 C 700.68708 642.41737 700.86311 642.87833 700.37695 642.38477 C 700.37695 642.38477 698.64277 637.87327 695.73828 642.78711 C 692.83375 647.70095 687.27458 650.95514 685.85352 651.48242 C 684.43241 652.00974 679.5078 655.82505 680.35547 657.11523 C 681.20314 658.40538 680.70495 660.81676 681.16602 661.17578 C 681.62723 661.53484 685.55372 661.01844 687.62305 658.71875 C 689.69234 656.41887 691.36303 652.25586 692.83398 651.77344 C 694.30494 651.29102 695.66441 652.65952 695.78906 651.63867 C 695.91379 650.61778 695.27671 649.44083 697.73242 647.5 C 700.18817 645.55914 699.81452 643.79701 700.82422 643.93164 C 701.83396 644.06619 701.98333 645.31171 703.30469 644.11133 C 704.62605 642.91095 707.95438 639.53391 707.70508 638.80469 C 707.45563 638.07547 707.83009 637.13317 708.93945 637.00977 C 710.04893 636.88618 713.83908 631.74838 711.99414 632.0625 C 710.1492 632.37658 708.75352 633.51027 708.04297 631.63672 C 707.37686 629.88027 705.63649 620.79655 704.43555 620.91602 z M 642.07227 631.5625 C 640.8272 631.60691 643.85938 637.39453 643.85938 637.39453 C 644.2084 638.29206 643.38589 638.35862 643.01172 641.36523 C 642.63777 644.37189 644.1584 644.7092 646.07812 644.84375 C 647.99782 644.97838 651.48778 636.92384 652.31055 635.03906 C 653.13327 633.1541 651.46233 631.73975 650.68945 633.17578 C 649.91658 634.61177 648.99464 637.26014 646.05273 636.69922 C 643.11098 636.13826 645.65275 633.78219 642.81055 631.875 C 642.47748 631.6515 642.23754 631.55661 642.07227 631.5625 z M 495.6875 647.65625 C 495.42368 647.65727 495.15191 647.66577 494.88086 647.68164 C 492.71247 647.80859 495.70931 649.26884 496.27344 649.58594 C 496.27344 649.58594 496.62713 649.52205 497.91406 648.71289 C 499.04013 648.00498 497.53423 647.64908 495.6875 647.65625 z M 268.89648 652.54492 C 267.92836 652.58028 265.83182 653.24008 264.1543 653.25 C 261.59806 653.26587 264.20895 653.86848 265.56641 655.32812 C 266.8886 655.37571 268.29798 654.66303 269.26758 653.1875 C 269.60088 652.6803 269.4036 652.5264 268.89648 652.54492 z M 308.02344 658.19922 C 307.49161 658.21445 306.62305 659.08984 306.62305 659.08984 C 306.62305 659.08984 306.69415 660.29549 307.76953 660.77148 C 307.76953 660.77148 308.29847 660.83458 308.42188 658.99414 C 308.46236 658.39027 308.28317 658.19178 308.02344 658.19922 z M 502.21875 659.25391 C 501.56743 659.26989 500.54782 659.64716 501.13867 660.29492 C 501.13867 660.29492 501.45597 660.48469 502.49609 659.69141 C 502.90239 659.38153 502.63627 659.24366 502.21875 659.25391 z M 279.28125 673.125 L 280.79688 673.41602 C 280.37434 673.20407 279.86673 673.0888 279.28125 673.125 z "
       transform="scale(0.26458333)" />
  </g>
</svg>
